HIERARCHY
ROOT Hips
{
	OFFSET 0.000000 0.000000 0.000000
	CHANNELS 6 Xposition Yposition Zposition Zrotation Yrotation Xrotation 
	JOINT LHipJoint
	{
		OFFSET 0.000000 0.000000 0.000000
		CHANNELS 3 Zrotation Yrotation Xrotation
		JOINT LeftUpLeg
		{
			OFFSET 1.363060 -1.794630 0.839290
			CHANNELS 3 Zrotation Yrotation Xrotation
			JOINT LeftLeg
			{
				OFFSET 2.448110 -6.726130 0.000000
				CHANNELS 3 Zrotation Yrotation Xrotation
				JOINT LeftFoot
				{
					OFFSET 2.562200 -7.039590 0.000000
					CHANNELS 3 Zrotation Yrotation Xrotation
					JOINT LeftToeBase
					{
						OFFSET 0.157640 -0.433110 2.322550
						CHANNELS 3 Zrotation Yrotation Xrotation
						End Site
						{
							OFFSET 0.000000 0.000000 0.000000
						}
					}
				}
			}
		}
	}
	JOINT RHipJoint
	{
		OFFSET 0.000000 0.000000 0.000000
		CHANNELS 3 Zrotation Yrotation Xrotation
		JOINT RightUpLeg
		{
			OFFSET -1.305520 -1.794630 0.839290
			CHANNELS 3 Zrotation Yrotation Xrotation
			JOINT RightLeg
			{
				OFFSET -2.542530 -6.985550 0.000000
				CHANNELS 3 Zrotation Yrotation Xrotation
				JOINT RightFoot
				{
					OFFSET -2.568260 -7.056230 0.000000
					CHANNELS 3 Zrotation Yrotation Xrotation
					JOINT RightToeBase
					{
						OFFSET -0.164730 -0.452590 2.363150
						CHANNELS 3 Zrotation Yrotation Xrotation
						End Site
						{
							OFFSET 0.000000 0.000000 0.000000
						}
					}
				}
			}
		}
	}
	JOINT LowerBack
	{
		OFFSET 0.000000 0.000000 0.000000
		CHANNELS 3 Zrotation Yrotation Xrotation
		JOINT Spine
		{
			OFFSET 0.028270 2.035590 -0.193380
			CHANNELS 3 Zrotation Yrotation Xrotation
			JOINT Spine1
			{
				OFFSET 0.056720 2.048850 -0.042750
				CHANNELS 3 Zrotation Yrotation Xrotation
				JOINT Neck
				{
					OFFSET 0.000000 0.000000 0.000000
					CHANNELS 3 Zrotation Yrotation Xrotation
					JOINT Neck1
					{
						OFFSET -0.054170 1.746240 0.172020
						CHANNELS 3 Zrotation Yrotation Xrotation
						JOINT Head
						{
							OFFSET 0.104070 1.761360 -0.123970
							CHANNELS 3 Zrotation Yrotation Xrotation
							End Site
							{
								OFFSET 0.000000 0.000000 0.000000
							}
						}
					}
				}
				JOINT LeftShoulder
				{
					OFFSET 0.000000 0.000000 0.000000
					CHANNELS 3 Zrotation Yrotation Xrotation
					JOINT LeftArm
					{
						OFFSET 3.362410 1.200890 -0.311210
						CHANNELS 3 Zrotation Yrotation Xrotation
						JOINT LeftForeArm
						{
							OFFSET 4.983000 -0.000000 -0.000000
							CHANNELS 3 Zrotation Yrotation Xrotation
							JOINT LeftHand
							{
								OFFSET 3.483560 -0.000000 -0.000000
								CHANNELS 3 Zrotation Yrotation Xrotation
								JOINT LeftFingerBase
								{
									OFFSET 0.000000 0.000000 0.000000
									CHANNELS 3 Zrotation Yrotation Xrotation
									JOINT LeftHandIndex1
									{
										OFFSET 0.715260 -0.000000 -0.000000
										CHANNELS 3 Zrotation Yrotation Xrotation
										End Site
										{
											OFFSET 0.000000 0.000000 0.000000
										}
									}
								}
								JOINT LThumb
								{
									OFFSET 0.000000 0.000000 0.000000
									CHANNELS 3 Zrotation Yrotation Xrotation
									End Site
									{
										OFFSET 0.000000 0.000000 0.000000
									}
								}
							}
						}
					}
				}
				JOINT RightShoulder
				{
					OFFSET 0.000000 0.000000 0.000000
					CHANNELS 3 Zrotation Yrotation Xrotation
					JOINT RightArm
					{
						OFFSET -3.136600 1.374050 -0.404650
						CHANNELS 3 Zrotation Yrotation Xrotation
						JOINT RightForeArm
						{
							OFFSET -5.241900 -0.000000 -0.000000
							CHANNELS 3 Zrotation Yrotation Xrotation
							JOINT RightHand
							{
								OFFSET -3.444170 -0.000000 -0.000000
								CHANNELS 3 Zrotation Yrotation Xrotation
								JOINT RightFingerBase
								{
									OFFSET 0.000000 0.000000 0.000000
									CHANNELS 3 Zrotation Yrotation Xrotation
									JOINT RightHandIndex1
									{
										OFFSET -0.622530 -0.000000 -0.000000
										CHANNELS 3 Zrotation Yrotation Xrotation
										End Site
										{
											OFFSET 0.000000 0.000000 0.000000
										}
									}
								}
								JOINT RThumb
								{
									OFFSET 0.000000 0.000000 0.000000
									CHANNELS 3 Zrotation Yrotation Xrotation
									End Site
									{
										OFFSET 0.000000 0.000000 0.000000
									}
								}
							}
						}
					}
				}
			}
		}
	}
}
MOTION
Frames: 9
Frame Time: 0.008333
-10.954822 17.816858 -1.170546 -142.563972 87.774485 -138.802614 -11.680788 4.484277 0.213053 -3.361888 9.953088 5.377364 -0.002780 1.697051 21.189764 1.417497 6.872255 21.303144 2.709100 0.000000 -64.436700 8.242313 -0.313507 1.881885 11.197539 -5.173442 -24.043314 2.639214 1.587725 3.109494 -3.080241 -12.622094 -9.844342 -0.395500 0.000000 -47.395800 0.855529 -6.572759 -3.183536 0.338490 -6.731074 -2.753776 -3.941644 -6.765079 2.987557 8.910148 -22.316265 -10.953748 -1.092259 -0.024118 -0.808751 0.000000 0.000000 0.000000 9.242029 13.923250 -0.813298 -50.916884 -11.039561 -4.012851 -0.621266 -66.165359 -0.109896 16.151322 1.151167 0.111225 -0.239034 0.388609 0.000000 0.000000 0.000000 0.000000 0.000000 0.000000 0.000000 9.328617 -22.016509 0.838873 80.869439 -32.927237 -10.906769 4.810470 21.553831 0.023321 3.906382 10.133457 0.335651 0.128275 0.002007 -0.000000 0.000000 0.000000 0.000000 0.000000 0.000000 0.000000 
-10.717197 17.890843 -1.145937 -145.397151 88.097170 -142.013565 -11.744601 4.560291 0.193562 -3.234913 10.477118 5.229673 0.100497 1.758467 22.318593 1.568407 7.172014 23.650221 2.993500 0.000000 -60.544200 8.246100 -0.370501 1.924070 11.446157 -5.142920 -23.034842 2.609397 1.692217 1.991490 -3.037847 -12.788665 -9.069025 -0.603300 -0.000000 -47.756400 0.673841 -6.636466 -3.286430 0.340104 -6.782149 -2.767353 -3.765720 -6.826893 3.021169 8.618315 -22.467456 -10.807392 -1.013494 -0.020060 -0.766312 0.000000 0.000000 0.000000 9.471124 14.000764 -0.822146 -50.833180 -10.222257 -4.132990 -0.627491 -65.643553 -0.107231 15.899154 1.156291 0.110785 -0.235993 0.384741 0.000000 0.000000 0.000000 0.000000 0.000000 0.000000 0.000000 8.874093 -22.199504 0.797995 81.047023 -33.665051 -11.019479 4.862349 21.771935 0.020749 4.352610 9.196807 0.340326 0.127700 0.006664 -0.000000 0.000000 0.000000 0.000000 0.000000 0.000000 0.000000 
-10.481892 17.954746 -1.124103 -147.597604 88.468497 -144.587683 -11.803375 4.613072 0.144323 -3.122458 11.106203 4.984801 0.179704 1.806295 23.571121 1.719704 7.733805 25.312775 3.376500 0.000000 -56.241800 8.247138 -0.430461 1.960360 11.673265 -5.044482 -22.134361 2.581616 1.743218 1.334115 -2.996098 -12.889992 -8.448579 -0.768900 0.000001 -48.185999 0.536419 -6.667846 -3.353563 0.344703 -6.803455 -2.777112 -3.607449 -6.857891 3.045493 8.341093 -22.597793 -10.688340 -0.937308 -0.015759 -0.732176 0.000000 0.000000 0.000000 9.599214 14.098104 -0.815551 -50.731656 -9.386464 -4.165842 -0.638375 -65.132872 -0.104779 15.719589 1.111658 0.103855 -0.234603 0.380539 0.000000 0.000000 0.000000 0.000000 0.000000 0.000000 0.000000 8.431845 -22.337966 0.773720 81.209314 -34.282238 -11.033072 4.910174 21.993716 0.017857 4.826652 8.202392 0.337196 0.126650 0.011936 -0.000000 0.000000 0.000000 0.000000 0.000000 0.000000 0.000000 
-10.249321 18.008043 -1.104723 -149.188498 88.884915 -146.556955 -11.853120 4.643095 0.054421 -3.018473 11.845401 4.676541 0.239689 1.848269 24.912971 1.867391 8.583500 26.312926 3.881500 -0.000001 -52.019799 8.247247 -0.491224 1.991732 11.863886 -4.854315 -21.298393 2.549186 1.747014 1.082345 -2.965454 -12.968034 -8.000246 -0.887599 -0.000000 -48.666700 0.433801 -6.670551 -3.370029 0.349558 -6.798182 -2.779050 -3.470837 -6.860947 3.061120 8.094024 -22.711011 -10.598072 -0.866130 -0.011374 -0.706729 0.000000 0.000000 0.000000 9.640355 14.213598 -0.795953 -50.611103 -8.534661 -4.116616 -0.653248 -64.639499 -0.102602 15.620694 1.018221 0.090836 -0.234902 0.376055 0.000000 0.000000 0.000000 0.000000 0.000000 0.000000 0.000000 8.029061 -22.439200 0.763302 81.342814 -34.769328 -10.938892 4.953771 22.214507 0.014668 5.341080 7.164959 0.326463 0.125012 0.017770 -0.000000 0.000000 0.000000 0.000000 0.000000 0.000000 0.000000 
-10.019500 18.050376 -1.087389 -149.938882 89.328122 -147.691520 -11.892702 4.647223 -0.083123 -2.902989 12.702927 4.311673 0.287282 1.888872 26.335769 2.008616 9.694989 26.682758 4.490400 -0.000000 -48.182500 8.246605 -0.555125 2.025950 12.015712 -4.543148 -20.482499 2.505601 1.712713 1.145027 -2.958134 -13.085793 -7.712742 -0.966900 0.000001 -49.184400 0.362092 -6.650649 -3.332828 0.353961 -6.772340 -2.771547 -3.359106 -6.841945 3.069035 7.888846 -22.804943 -10.534736 -0.803262 -0.007210 -0.689361 0.000000 0.000000 0.000000 9.609501 14.342431 -0.765828 -50.477792 -7.667217 -3.993667 -0.671867 -64.161401 -0.100671 15.601269 0.882112 0.072426 -0.236797 0.371218 0.000000 0.000000 0.000000 0.000000 0.000000 0.000000 0.000000 7.690612 -22.505648 0.762847 81.441837 -35.127032 -10.774842 4.994678 22.428582 0.011211 5.914699 6.094372 0.307727 0.122704 0.024030 -0.000000 0.000000 0.000000 0.000000 0.000000 0.000000 0.000000 
-9.792385 18.081478 -1.071297 -150.064649 89.793494 -148.213055 -11.920292 4.628249 -0.267038 -2.782012 13.661768 3.905012 0.325487 1.932229 27.823461 2.144023 11.030726 26.476126 5.167900 -0.000000 -44.894000 8.248612 -0.619397 2.056984 12.123681 -4.142815 -19.660952 2.448940 1.647101 1.462916 -2.974622 -13.251206 -7.580197 -1.008200 -0.000001 -49.694099 0.297028 -6.613332 -3.236279 0.352510 -6.729530 -2.752284 -3.273775 -6.804345 3.071087 7.735762 -22.880281 -10.495116 -0.750696 -0.003475 -0.679121 0.000000 0.000000 0.000000 9.527904 14.482018 -0.728178 -50.343201 -6.787130 -3.810016 -0.693846 -63.687067 -0.098894 15.650504 0.713397 0.049923 -0.240011 0.365893 0.000000 0.000000 0.000000 0.000000 0.000000 0.000000 0.000000 7.436448 -22.542578 0.768377 81.503051 -35.355000 -10.562298 5.033196 22.624664 0.007553 6.547799 5.008747 0.280087 0.119736 0.030532 -0.000000 0.000000 0.000000 0.000000 0.000000 0.000000 0.000000 
-9.567820 18.101134 -1.055529 29.262102 89.686826 30.705120 -11.940204 4.603793 -0.489181 -2.669565 14.706191 3.456543 0.347313 1.985957 29.361801 2.275554 12.528298 25.749783 5.856800 -0.000000 -42.145900 8.254837 -0.671746 2.074726 12.186017 -3.694842 -18.815416 2.379810 1.561817 1.980357 -3.009636 -13.454611 -7.580805 -1.015300 0.000000 -50.144500 0.210855 -6.553568 -3.082365 0.337119 -6.662954 -2.721234 -3.216395 -6.740923 3.069577 7.640881 -22.935534 -10.474696 -0.709818 -0.000358 -0.674645 0.000000 0.000000 0.000000 9.415841 14.636348 -0.686020 -50.220745 -5.896253 -3.582001 -0.719057 -63.199590 -0.097128 15.750821 0.525465 0.024723 -0.244131 0.359865 0.000000 0.000000 0.000000 0.000000 0.000000 0.000000 0.000000 7.279008 -22.547505 0.777060 81.528938 -35.457528 -10.336754 5.070045 22.792462 0.003798 7.233882 3.928206 0.242345 0.116216 0.036997 -0.000000 0.000000 0.000000 0.000000 0.000000 0.000000 0.000000 
-9.345612 18.109165 -1.039319 36.874882 89.471840 37.886810 -11.875709 4.455280 -0.758337 -2.503094 15.732266 3.005546 0.426092 2.003694 30.969601 2.394357 14.106608 24.584224 6.500600 0.000000 -39.994199 8.317519 -0.798125 2.102571 12.238429 -3.301544 -17.955241 2.299593 1.421428 2.590394 -3.074896 -13.732306 -7.698875 -0.994400 -0.000000 -50.490801 0.157556 -6.564306 -2.860223 0.340166 -6.667938 -2.670229 -3.175777 -6.750485 3.065368 7.601210 -22.970138 -10.467094 -0.682639 0.001890 -0.674390 0.000000 0.000000 0.000000 9.289612 14.752302 -0.636262 -50.134418 -5.023597 -3.322553 -0.748896 -62.672433 -0.095296 15.879074 0.334266 -0.001265 -0.249017 0.353277 0.000000 0.000000 0.000000 0.000000 0.000000 0.000000 0.000000 7.225003 -22.570117 0.775130 81.529393 -35.448379 -10.134036 5.102619 22.926275 0.000010 7.953819 2.878414 0.194600 0.112023 0.043494 -0.000000 0.000000 0.000000 0.000000 0.000000 0.000000 0.000000 
-9.125173 18.105409 -1.021874 36.472335 88.946280 37.055166 -11.867725 4.403167 -1.027429 -2.421785 16.828346 2.472999 0.433595 2.067018 32.576625 2.519080 15.706651 23.040847 7.030800 -0.000000 -38.223200 8.348575 -0.845436 2.081506 12.225967 -2.930490 -17.051628 2.213753 1.307599 3.319987 -3.131527 -13.978227 -7.869916 -0.952800 -0.000001 -50.663300 -0.012796 -6.495262 -2.609648 0.294679 -6.586229 -2.615971 -3.167056 -6.668703 3.063485 7.620539 -22.982449 -10.470028 -0.666461 0.003416 -0.677072 0.000000 0.000000 0.000000 9.161143 14.921570 -0.588206 -50.077144 -4.139082 -3.055968 -0.782413 -62.094998 -0.093128 16.010113 0.155747 -0.025665 -0.253737 0.345366 0.000000 0.000000 0.000000 0.000000 0.000000 0.000000 0.000000 7.266377 -22.529690 0.777741 81.510323 -35.329360 -9.986616 5.134381 23.022818 -0.003556 8.683161 1.883970 0.137759 0.107805 0.049129 -0.000000 0.000000 0.000000 0.000000 0.000000 0.000000 0.000000 
